<svg xmlns="http://www.w3.org/2000/svg" width="103" height="32" fill="none"><path fill="#fff" d="M55.16 74.737c7.377 0 14.452-2.98 19.669-8.285 5.216-5.305 8.147-12.5 8.147-20.002 0-7.503-2.93-14.698-8.147-20.003-5.217-5.304-12.292-8.285-19.669-8.285H0v2.2h55.16c6.787 0 13.296 2.805 18.095 7.686 4.8 4.88 7.496 11.5 7.496 18.402 0 6.902-2.697 13.521-7.496 18.401-4.799 4.88-11.308 7.686-18.095 7.686H0v2.2h55.16Z"/><path fill="#fff" d="M54.217 70.022a23.73 23.73 0 0 0 0-47.46H0v2.2h54.217c5.727 0 11.22 2.211 15.27 6.26a21.595 21.595 0 0 1 0 30.54c-4.05 4.05-9.543 6.26-15.27 6.26H0v2.2h54.217Z"/><path fill="#fff" d="M55.003 78.823a32.687 32.687 0 1 0 0-65.375H0v2.2h55.003c8.062 0 15.794 3.29 21.495 8.992a30.399 30.399 0 0 1 0 42.991c-5.7 5.701-13.433 8.992-21.495 8.992H0v2.2h55.003Z"/><path fill="#fff" d="M55.789 83.223a36.93 36.93 0 1 0 0-73.861H0v2.216H55.79a34.715 34.715 0 0 1 24.547 59.261 34.73 34.73 0 0 1-24.547 10.184H0v2.2H55.79Z"/><path fill="#fff" d="M56.103 87.623c5.469 0 10.884-.763 15.937-2.856a41.646 41.646 0 0 0 0-76.95c-5.053-2.093-10.468-2.856-15.937-2.856H0v2.2h56.103c5.14 0 10.231.997 14.98 2.965A39.144 39.144 0 0 1 92.27 61.273a39.146 39.146 0 0 1-36.166 24.166H0v2.184h56.103Z"/><path fill="#fff" d="M56.26 92.652A46.202 46.202 0 0 0 73.941 3.764C68.335 1.442 62.327.562 56.261.562H0v2.2h56.26c5.764 0 11.472.93 16.797 3.136a43.891 43.891 0 0 1 0 81.103c-5.325 2.206-11.033 3.45-16.797 3.45H0v2.201h56.26Z"/></svg>