<svg xmlns="http://www.w3.org/2000/svg" width="40" height="162" fill="none"><mask id="a" width="40" height="162" x="0" y="0" maskUnits="userSpaceOnUse" style="mask-type:alpha"><path fill="#5CC12C" d="M0 0v161.72h39.307V0z"/></mask><g fill="#fff" mask="url(#a)"><path d="M86.748 55.16a27.752 27.752 0 0 1-8.185 19.669 28.007 28.007 0 0 1-19.758 8.147c-7.41 0-14.518-2.931-19.758-8.147a27.752 27.752 0 0 1-8.184-19.67V0h2.173v55.16c0 6.788 2.77 13.297 7.592 18.096a25.766 25.766 0 0 0 18.177 7.495 25.766 25.766 0 0 0 18.178-7.495c4.82-4.8 7.591-11.308 7.591-18.095V0h2.174v55.16Z"/><path d="M82.09 54.217c0 6.294-2.47 12.33-6.865 16.78a23.297 23.297 0 0 1-16.575 6.95c-6.217 0-12.18-2.5-16.575-6.95-4.396-4.45-6.866-10.486-6.866-16.78V0h2.174v54.217c0 5.727 2.183 11.22 6.184 15.27A21.2 21.2 0 0 0 58.65 75.81a21.2 21.2 0 0 0 15.083-6.325c4-4.05 6.184-9.542 6.184-15.269V0h2.173v54.217Z"/><path d="M90.783 55.003c0 8.669-3.401 16.983-9.457 23.113-6.055 6.13-14.268 9.574-22.831 9.574-8.564 0-16.777-3.444-22.832-9.574s-9.457-14.444-9.457-23.113V0h2.173v55.003c0 8.062 3.25 15.794 8.882 21.495 5.632 5.701 13.27 8.904 21.234 8.904 7.964 0 15.602-3.203 21.233-8.904 5.632-5.7 8.882-13.433 8.882-21.495V0h2.173v55.003Z"/><path d="M95.13 55.788c0 9.795-3.843 19.189-10.685 26.114-6.841 6.926-16.12 10.817-25.795 10.817s-18.954-3.89-25.795-10.817C26.013 74.977 22.17 65.583 22.17 55.788V0h2.189v55.788c0 9.207 3.612 18.037 10.043 24.547 6.431 6.51 15.153 10.168 24.248 10.168s17.817-3.657 24.248-10.168A34.948 34.948 0 0 0 92.957 55.79V-.002h2.173v55.79Z"/><path d="M99.477 56.103c0 5.469-.754 10.884-2.821 15.937a41.683 41.683 0 0 1-8.918 13.51 41.109 41.109 0 0 1-13.346 9.028 40.703 40.703 0 0 1-15.742 3.17 40.703 40.703 0 0 1-15.743-3.17 41.109 41.109 0 0 1-13.346-9.028 41.685 41.685 0 0 1-8.917-13.51c-2.067-5.053-2.82-10.468-2.82-15.937V0h2.172v56.103c0 5.14.985 10.231 2.928 14.98a39.182 39.182 0 0 0 8.383 12.7 38.641 38.641 0 0 0 12.545 8.486 38.261 38.261 0 0 0 14.798 2.98 38.262 38.262 0 0 0 14.798-2.98 38.642 38.642 0 0 0 12.545-8.486 39.183 39.183 0 0 0 8.382-12.7 39.566 39.566 0 0 0 2.944-14.98V0h2.157v56.103Z"/><path d="M104.444 56.26a46.69 46.69 0 0 1-3.474 17.68 46.245 46.245 0 0 1-9.893 14.99A45.605 45.605 0 0 1 76.27 98.945a45.16 45.16 0 0 1-17.465 3.517 45.161 45.161 0 0 1-17.465-3.517A45.605 45.605 0 0 1 26.533 88.93a46.246 46.246 0 0 1-9.893-14.99c-2.293-5.605-3.163-11.613-3.163-17.68V0h2.173v56.26c0 5.764.92 11.472 3.098 16.797a43.932 43.932 0 0 0 9.399 14.24 43.326 43.326 0 0 0 14.066 9.514 42.899 42.899 0 0 0 16.592 3.341 42.898 42.898 0 0 0 16.592-3.34 43.326 43.326 0 0 0 14.066-9.516 43.932 43.932 0 0 0 9.399-14.24c2.179-5.324 3.409-11.032 3.409-16.796V0h2.173v56.26Z"/></g></svg>