<svg width="344" height="498" viewBox="0 0 344 498" fill="none" xmlns="http://www.w3.org/2000/svg">
<mask id="mask0_51_112" style="mask-type:alpha" maskUnits="userSpaceOnUse" x="0" y="0" width="344" height="498">
<rect width="344" height="498" fill="#5CC12C"/>
</mask>
<g mask="url(#mask0_51_112)">
<path d="M425 150.5C425 127.028 415.518 104.518 398.64 87.9211C381.761 71.3241 358.869 62 335 62C311.131 62 288.239 71.3241 271.36 87.921C254.482 104.518 245 127.028 245 150.5V326H252V150.5C252 128.906 260.924 108.197 276.452 92.9274C291.98 77.6582 313.04 69.08 335 69.08C356.96 69.08 378.02 77.6582 393.548 92.9274C409.076 108.197 418 128.906 418 150.5V326H425V150.5Z" fill="white"/>
<path d="M410 153.5C410 133.476 402.046 114.272 387.887 100.113C373.728 85.9544 354.524 78 334.5 78C314.476 78 295.272 85.9544 281.113 100.113C266.954 114.272 259 133.476 259 153.5V326H266V153.5C266 135.278 273.034 117.803 285.918 104.918C298.803 92.0335 316.278 84.795 334.5 84.795C352.722 84.795 370.197 92.0335 383.082 104.918C395.966 117.803 403 135.278 403 153.5V326H410V153.5Z" fill="white"/>
<path d="M438 151C438 123.417 427.043 96.9647 407.539 77.4609C388.035 57.9571 361.583 47 334 47C306.417 47 279.965 57.9571 260.461 77.4609C240.957 96.9647 230 123.417 230 151V326H237V151C237 125.348 247.47 100.747 265.609 82.6086C283.747 64.4701 308.348 54.28 334 54.28C359.652 54.28 384.253 64.4701 402.391 82.6086C420.53 100.747 431 125.348 431 151V326H438V151Z" fill="white"/>
<path d="M452 148.5C452 117.337 439.621 87.4505 417.585 65.415C395.55 43.3794 365.663 31 334.5 31C303.337 31 273.45 43.3794 251.415 65.4149C229.379 87.4505 217 117.337 217 148.5V326H224.05V148.5C224.05 119.207 235.687 91.1134 256.4 70.4001C277.113 49.6867 305.207 38.05 334.5 38.05C363.793 38.05 391.887 49.6867 412.6 70.4001C433.313 91.1135 445 119.207 445 148.5V326H452V148.5Z" fill="white"/>
<path d="M466 147.5C466 130.1 463.573 112.87 456.914 96.7944C450.255 80.7188 440.495 66.1121 428.192 53.8083C415.888 41.5046 401.281 31.7447 385.206 25.086C369.13 18.4272 351.9 15 334.5 15C317.1 15 299.87 18.4272 283.794 25.086C267.719 31.7447 253.112 41.5046 240.808 53.8084C228.505 66.1121 218.745 80.7188 212.086 96.7945C205.427 112.87 203 130.1 203 147.5V326H210V147.5C210 131.144 213.172 114.948 219.431 99.8368C225.69 84.7257 234.864 70.9954 246.43 59.4299C257.995 47.8643 271.726 38.69 286.837 32.4308C301.948 26.1716 318.144 22.95 334.5 22.95C350.856 22.95 367.052 26.1716 382.163 32.4308C397.274 38.69 411.005 47.8643 422.57 59.4298C434.136 70.9954 443.31 84.7257 449.569 99.8368C455.828 114.948 459.05 131.144 459.05 147.5V326H466V147.5Z" fill="white"/>
<path d="M482 147C482 127.696 478.198 108.58 470.81 90.7455C463.423 72.9107 452.595 56.7055 438.945 43.0553C425.294 29.4051 409.089 18.5771 391.254 11.1897C373.42 3.80227 354.304 -8.43818e-07 335 0C315.696 8.43819e-07 296.58 3.80227 278.746 11.1897C260.911 18.5772 244.706 29.4051 231.055 43.0553C217.405 56.7055 206.577 72.9107 199.19 90.7455C191.802 108.58 189 127.696 189 147L189 326H196V236.5V147C196 128.661 198.962 110.501 205.98 93.5583C212.998 76.6152 223.285 61.2203 236.253 48.2525C249.22 35.2848 264.615 24.9983 281.558 17.9802C298.501 10.9622 316.661 7.35001 335 7.35001C353.339 7.35001 371.499 10.9622 388.442 17.9802C405.385 24.9983 420.78 35.2848 433.747 48.2525C446.715 61.2202 457.002 76.6151 464.02 93.5583C471.038 110.501 475 128.661 475 147V326H482V147Z" fill="white"/>
<path d="M1.61094 132.096C14.7487 132.096 27.3483 126.788 36.6381 117.341C45.9278 107.894 51.1468 95.0808 51.1468 81.7204C51.1468 68.36 45.9279 55.5468 36.6381 46.0996C27.3483 36.6524 14.7487 31.345 1.61096 31.345L-96.6211 31.345L-96.6211 35.2631L1.61095 35.2631C13.6977 35.2631 25.2893 40.2578 33.8359 48.9493C42.3825 57.6407 47.1839 69.4288 47.1839 81.7204C47.1839 94.012 42.3825 105.8 33.8359 114.492C25.2893 123.183 13.6976 128.178 1.61094 128.178L-96.6211 128.178L-96.6211 132.096L1.61094 132.096Z" fill="white"/>
<path d="M-0.0682311 123.7C11.1397 123.7 21.8885 119.247 29.8137 111.322C37.7388 103.397 42.1912 92.6482 42.1912 81.4403C42.1912 70.2324 37.7388 59.4836 29.8137 51.5584C21.8885 43.6332 11.1397 39.1809 -0.0682231 39.1809L-96.6211 39.1809L-96.6211 43.099L-0.0682276 43.099C10.1309 43.099 19.9124 47.0359 27.1243 54.2478C34.3362 61.4597 38.3878 71.2411 38.3878 81.4403C38.3878 91.6395 34.3362 101.421 27.1243 108.633C19.9124 115.845 10.1309 119.782 -0.0682309 119.782L-96.6211 119.782L-96.6211 123.7L-0.0682311 123.7Z" fill="white"/>
<path d="M1.3311 139.372C16.7698 139.372 31.5761 133.239 42.4929 122.322C53.4097 111.406 59.5427 96.5993 59.5427 81.1606C59.5427 65.7219 53.4097 50.9156 42.4929 39.9988C31.5761 29.082 16.7698 22.949 1.33111 22.949L-96.6211 22.949L-96.6211 26.8671L1.33111 26.8671C15.6891 26.8671 29.459 32.7275 39.6116 42.8801C49.7642 53.0327 55.4679 66.8026 55.4679 81.1606C55.4679 95.5186 49.7642 109.288 39.6116 119.441C29.459 129.594 15.6891 135.454 1.3311 135.454L-96.6212 135.454L-96.6212 139.372L1.3311 139.372Z" fill="white"/>
<path d="M2.73036 147.208C20.1731 147.208 36.9014 140.279 49.2353 127.945C61.5692 115.611 68.4983 98.883 68.4983 81.4403C68.4983 63.9976 61.5692 47.2692 49.2353 34.9353C36.9014 22.6015 20.1731 15.6724 2.73038 15.6724L-96.6212 15.6724L-96.6212 19.6184L2.73038 19.6184C19.1265 19.6184 34.8512 26.1318 46.445 37.7256C58.0389 49.3195 64.5522 65.0441 64.5522 81.4403C64.5522 97.8365 58.0389 113.561 46.445 125.155C34.8512 136.749 19.1265 143.29 2.73036 143.29L-96.6212 143.29L-96.6212 147.208L2.73036 147.208Z" fill="white"/>
<path d="M3.29014 155.044C13.0295 155.044 22.6734 153.686 31.6714 149.959C40.6694 146.232 48.8451 140.769 55.7319 133.882C62.6186 126.995 68.0815 118.82 71.8086 109.822C75.5357 100.824 77.454 91.1796 77.454 81.4403C77.454 71.701 75.5357 62.057 71.8086 53.059C68.0815 44.061 62.6186 35.8853 55.7319 28.9985C48.8451 22.1118 40.6694 16.6489 31.6714 12.9218C22.6734 9.19475 13.0295 7.83618 3.29015 7.83618L-96.6211 7.83617L-96.6211 11.7543L3.29015 11.7543C12.4451 11.7543 21.5104 13.5295 29.9685 17.0329C38.4266 20.5364 46.1118 25.6715 52.5854 32.145C59.0589 38.6186 64.194 46.3038 67.6975 54.7619C71.2009 63.22 73.0041 72.2853 73.0041 81.4403C73.0041 90.5953 71.2009 99.6606 67.6975 108.119C64.194 116.577 59.0589 124.262 52.5854 130.736C46.1118 137.209 38.4266 142.344 29.9685 145.848C21.5104 149.351 12.4451 151.154 3.29014 151.154L-96.6211 151.154L-96.6211 155.044L3.29014 155.044Z" fill="white"/>
<path d="M3.56998 164C14.3751 164 25.0745 161.872 35.0571 157.737C45.0398 153.602 54.1102 147.541 61.7506 139.901C69.391 132.26 75.4517 123.19 79.5867 113.207C83.7216 103.225 85.8498 92.5253 85.8498 81.7201C85.8498 70.915 83.7216 60.2157 79.5867 50.233C75.4517 40.2503 69.391 31.1799 61.7506 23.5395C54.1102 15.8991 45.0398 9.8384 35.0571 5.70345C25.0745 1.5685 14.3751 -4.06888e-06 3.56998 -3.59657e-06L-96.6212 -7.97606e-06L-96.6212 3.91808L-46.5256 3.91808L3.56998 3.91809C13.8349 3.91809 23.9992 5.57609 33.4828 9.50429C42.9663 13.4325 51.5832 19.1901 58.8416 26.4485C66.1 33.7069 71.8576 42.3238 75.7858 51.8074C79.714 61.2909 81.7359 71.4553 81.7359 81.7201C81.7359 91.985 79.714 102.149 75.7858 111.633C71.8576 121.116 66.1 129.733 58.8416 136.992C51.5832 144.25 42.9663 150.008 33.4828 153.936C23.9992 157.864 13.8349 160.082 3.56998 160.082L-96.6212 160.082L-96.6212 164L3.56998 164Z" fill="white"/>
</g>
</svg>
