<svg aria-hidden="true" style="position: absolute; width: 0; height: 0; overflow: hidden;" version="1.1" xmlns="http://www.w3.org/2000/svg" xmlns:xlink="http://www.w3.org/1999/xlink">
<defs>

<symbol id="icon-github" viewBox="0 0 30 32">
<path stroke-linejoin="round" stroke-linecap="round" stroke-miterlimit="4" stroke-width="1.7963" d="M12.617 26.404c-4.109 1.387-7.531 0-9.585-4.275"></path>
<path stroke-linejoin="round" stroke-linecap="round" stroke-miterlimit="4" stroke-width="1.7963" d="M12.617 28.119v-3.883c0-0.717 0.22-1.34 0.576-1.903 0.243-0.386 0.075-0.934-0.365-1.054-3.646-1.003-6.202-2.615-6.202-7.957 0-1.391 0.454-2.699 1.257-3.836 0.198-0.282 0.299-0.425 0.32-0.553 0.026-0.128-0.017-0.294-0.1-0.629-0.337-1.361-0.316-2.807 0.192-4.109 0 0 1.052-0.343 3.443 1.152 0.546 0.341 0.819 0.512 1.060 0.548 0.239 0.038 0.561-0.043 1.203-0.201 0.827-0.214 1.776-0.337 2.754-0.337 0.019 0 0.037 0 0.056 0h-0.003c1.022 0 1.926 0.117 2.805 0.337 0.644 0.16 0.966 0.239 1.205 0.201 0.241-0.038 0.512-0.209 1.060-0.55 2.391-1.493 3.443-1.152 3.443-1.152 0.508 1.303 0.529 2.752 0.192 4.111-0.085 0.335-0.128 0.501-0.102 0.629 0.023 0.128 0.124 0.271 0.322 0.555 0.8 1.135 1.257 2.443 1.257 3.831 0 5.344-2.556 6.955-6.202 7.957-0.439 0.122-0.608 0.67-0.363 1.056 0.354 0.563 0.576 1.186 0.576 1.903v3.883"></path>
</symbol>
<symbol id="icon-linkedin" viewBox="0 0 32 32">
<path stroke-linejoin="round" stroke-linecap="round" stroke-miterlimit="4" stroke-width="1.7963" d="M10.219 13.289v8.384M15.012 16.883v4.791M15.012 16.883c-0.001-0.026-0.001-0.057-0.001-0.088 0-1.985 1.609-3.595 3.595-3.595s3.595 1.609 3.595 3.595c0 0.031-0 0.061-0.001 0.092l0-0.005v4.791M15.010 16.883v-3.595"></path>
<path stroke-linejoin="round" stroke-linecap="round" stroke-miterlimit="4" stroke-width="2.3957" d="M10.229 9.694h-0.011"></path>
<path stroke-linejoin="round" stroke-linecap="butt" stroke-miterlimit="4" stroke-width="1.7963" d="M4.83 15.684c0-5.365 0-8.047 1.664-9.713 1.668-1.666 4.352-1.666 9.715-1.666 5.365 0 8.047 0 9.715 1.664 1.664 1.668 1.664 4.352 1.664 9.715 0 5.365 0 8.047-1.664 9.713-1.668 1.668-4.352 1.668-9.715 1.668-5.365 0-8.047 0-9.713-1.668-1.666-1.664-1.666-4.348-1.666-9.713z"></path>
</symbol>
<symbol id="icon-location" viewBox="0 0 32 32">
<path stroke-linejoin="miter" stroke-linecap="round" stroke-miterlimit="4" stroke-width="1.7963" d="M23.396 23.081c1.493 0.508 2.396 1.175 2.396 1.907 0 1.594-4.288 2.884-9.583 2.884-5.291 0-9.583-1.291-9.583-2.884 0-0.732 0.905-1.399 2.396-1.907"></path>
<path stroke-linejoin="miter" stroke-linecap="butt" stroke-miterlimit="4" stroke-width="1.7963" d="M19.804 12.898c0 1.985-1.609 3.595-3.595 3.595s-3.595-1.609-3.595-3.595v0c0-1.985 1.609-3.595 3.595-3.595s3.595 1.609 3.595 3.595v0z"></path>
<path stroke-linejoin="miter" stroke-linecap="butt" stroke-miterlimit="4" stroke-width="1.7963" d="M16.209 3.913c4.864 0 8.986 4.107 8.986 9.088 0 5.062-4.19 8.614-8.060 11.029-0.266 0.156-0.585 0.247-0.926 0.247s-0.66-0.092-0.935-0.252l0.009 0.005c-3.861-2.438-8.058-5.95-8.058-11.029 0-4.981 4.122-9.088 8.983-9.088z"></path>
</symbol>
<symbol id="icon-mail" viewBox="0 0 32 32">
<path stroke-linejoin="round" stroke-linecap="butt" stroke-miterlimit="4" stroke-width="1.7963" d="M4.23 8.352l8.282 4.691c3.051 1.728 4.343 1.728 7.396 0l8.279-4.693"></path>
<path stroke-linejoin="round" stroke-linecap="butt" stroke-miterlimit="4" stroke-width="1.7963" d="M4.25 17.306c0.077 3.674 0.117 5.508 1.472 6.869s3.243 1.408 7.012 1.502c2.325 0.060 4.627 0.060 6.95 0 3.772-0.094 5.658-0.141 7.012-1.502 1.357-1.361 1.395-3.196 1.472-6.869 0.026-1.18 0.026-2.353 0-3.535-0.077-3.671-0.115-5.508-1.472-6.869-1.355-1.359-3.241-1.408-7.012-1.502-1.035-0.028-2.253-0.044-3.475-0.044s-2.44 0.016-3.655 0.048l0.179-0.004c-3.772 0.096-5.658 0.143-7.012 1.502-1.355 1.361-1.395 3.198-1.472 6.869-0.012 0.526-0.019 1.146-0.019 1.767s0.007 1.241 0.021 1.859l-0.002-0.092z"></path>
</symbol>
<symbol id="icon-telegram" viewBox="0 0 32 32">
<path stroke-linejoin="round" stroke-linecap="round" stroke-miterlimit="4" stroke-width="1.9246" d="M16.064 20.649l4.16 4.731c1.543 1.751 2.313 2.629 3.12 2.414 0.807-0.213 1.083-1.367 1.637-3.673l3.070-12.793c0.853-3.552 1.278-5.328 0.329-6.203-0.946-0.878-2.587-0.226-5.87 1.079l-15.232 6.046c-2.626 1.045-3.938 1.566-4.023 2.462-0.004 0.041-0.006 0.089-0.006 0.137s0.002 0.096 0.007 0.143l-0-0.006c0.080 0.896 1.392 1.422 4.014 2.473 1.189 0.475 1.783 0.715 2.21 1.17l0.137 0.16c0.393 0.487 0.56 1.127 0.896 2.407l0.626 2.395c0.325 1.246 0.489 1.87 0.914 1.954 0.427 0.085 0.8-0.432 1.543-1.463l2.469-3.433zM16.064 20.649l-0.407-0.425c-0.464-0.485-0.697-0.725-0.697-1.026 0-0.299 0.233-0.542 0.697-1.026l4.585-4.779"></path>
</symbol>
<symbol id="icon-whatsapp" viewBox="0 0 32 32">
<path stroke-linejoin="round" stroke-linecap="butt" stroke-miterlimit="4" stroke-width="1.7963" d="M16.209 28.482c6.614-0.003 11.974-5.365 11.974-11.979 0-6.616-5.363-11.979-11.979-11.979s-11.979 5.363-11.979 11.979c0 1.683 0.347 3.284 0.973 4.737l-0.030-0.078c0.335 0.789 0.501 1.186 0.523 1.485s-0.068 0.629-0.243 1.286l-1.218 4.55 4.55-1.216c0.657-0.177 0.988-0.265 1.286-0.245 0.299 0.021 0.693 0.188 1.485 0.523 1.431 0.604 3.006 0.939 4.657 0.939z"></path>
<path stroke-linejoin="miter" stroke-linecap="butt" stroke-miterlimit="4" stroke-width="1.7963" d="M12.122 16.956l1.045-1.297c0.437-0.546 0.981-1.054 1.024-1.781 0.011-0.183-0.117-1.007-0.375-2.658-0.102-0.646-0.708-0.704-1.231-0.704-0.683 0-1.024 0-1.365 0.154-0.469 0.254-0.817 0.681-0.961 1.194l-0.003 0.014c-0.077 0.363-0.021 0.617 0.094 1.12 0.568 2.367 1.75 4.402 3.367 5.998l0.001 0.001c1.596 1.62 3.632 2.802 5.914 3.353l0.085 0.017c0.503 0.111 0.755 0.169 1.12 0.092 0.526-0.147 0.953-0.495 1.202-0.954l0.005-0.010c0.156-0.341 0.156-0.683 0.156-1.365 0-0.523-0.060-1.129-0.706-1.231-1.649-0.256-2.475-0.386-2.658-0.375-0.727 0.043-1.237 0.587-1.781 1.024l-1.297 1.045"></path>
</symbol>
<symbol id="icon-phone" viewBox="0 0 32 32">
<path stroke-linejoin="miter" stroke-linecap="round" stroke-miterlimit="4" stroke-width="2" d="M7.333 12c0-4.4 0-6.6 1.269-7.967s3.312-1.367 7.397-1.367 6.128 0 7.397 1.367 1.269 3.567 1.269 7.967v8c0 4.4 0 6.6-1.269 7.967s-3.312 1.367-7.397 1.367-6.128 0-7.397-1.367-1.269-3.567-1.269-7.967v-8z"></path>
<path stroke-linejoin="round" stroke-linecap="round" stroke-miterlimit="4" stroke-width="2.6667" d="M16 25.333h0.012"></path>
<path stroke-linejoin="round" stroke-linecap="round" stroke-miterlimit="4" stroke-width="2" d="M14.667 6.667h2.667M29.333 11.333s-1.333 0.461-1.333 1.751c0 1.288 1.333 1.627 1.333 2.916 0 1.288-1.333 1.628-1.333 2.917 0 1.288 1.333 1.749 1.333 1.749M2.667 11.333s1.333 0.461 1.333 1.751c0 1.288-1.333 1.627-1.333 2.916 0 1.288 1.333 1.628 1.333 2.917 0 1.288-1.333 1.749-1.333 1.749"></path>
</symbol>
</defs>
</svg>
